<svg width="22" height="25" viewBox="0 0 22 25" fill="none" xmlns="http://www.w3.org/2000/svg">
<path opacity="0.39" d="M20.3178 11.1975L10.9266 21.4085C9.12181 23.3708 6.07068 23.4984 4.1084 21.6936C2.14612 19.8889 2.01853 16.8378 3.82328 14.8755L14.0312 3.77659C15.1581 2.55127 17.0672 2.47144 18.2925 3.59839C19.5178 4.72534 19.5977 6.63443 18.4707 7.85974L9.8961 17.1828C9.44695 17.6712 8.68435 17.7073 8.19155 17.2541C7.69876 16.8009 7.67113 16.0379 8.12027 15.5495L15.8783 7.11439L14.5464 5.88945L6.78841 14.3246C5.66146 15.5499 5.74129 17.459 6.96661 18.586C8.19193 19.7129 10.101 19.6331 11.228 18.4078L19.8026 9.08469C21.6073 7.12241 21.4797 4.07128 19.5175 2.26652C17.5552 0.461769 14.5041 0.58936 12.6993 2.55164L2.49142 13.6505C0.00885789 16.3498 0.188647 20.547 2.88346 23.0255C5.57827 25.504 9.77588 25.3327 12.2584 22.6335L21.6497 12.4225L20.3178 11.1975Z" fill="#D8D8D8"/>
</svg>
