<svg width="18" height="21" viewBox="0 0 18 21" fill="none" xmlns="http://www.w3.org/2000/svg">
<path d="M17.52 13.2097L15.72 11.3996V6.93965C15.7439 5.28347 15.1678 3.67456 14.0981 2.40999C13.0283 1.14541 11.5372 0.310585 9.89995 0.0596501C8.94976 -0.0654827 7.98382 0.013465 7.06656 0.291226C6.1493 0.568986 5.30182 1.03917 4.58068 1.67041C3.85953 2.30165 3.2813 3.07943 2.88456 3.95184C2.48782 4.82426 2.2817 5.77126 2.27995 6.72965V11.3996L0.479951 13.2097C0.253857 13.4395 0.100535 13.7309 0.0391513 14.0475C-0.022232 14.364 0.0110473 14.6916 0.134829 14.9893C0.25861 15.287 0.467402 15.5416 0.735102 15.7213C1.0028 15.901 1.31753 15.9978 1.63995 15.9997H4.99995V16.3397C5.04666 17.3549 5.4939 18.3101 6.24368 18.9962C6.99345 19.6822 7.9846 20.0431 8.99995 19.9997C10.0153 20.0431 11.0065 19.6822 11.7562 18.9962C12.506 18.3101 12.9532 17.3549 13 16.3397V15.9997H16.36C16.6824 15.9978 16.9971 15.901 17.2648 15.7213C17.5325 15.5416 17.7413 15.287 17.8651 14.9893C17.9889 14.6916 18.0221 14.364 17.9608 14.0475C17.8994 13.7309 17.746 13.4395 17.52 13.2097ZM11 16.3397C10.9445 16.8207 10.7056 17.2617 10.333 17.5709C9.96045 17.8802 9.48293 18.0337 8.99995 17.9997C8.51697 18.0337 8.03945 17.8802 7.66688 17.5709C7.29431 17.2617 7.05541 16.8207 6.99995 16.3397V15.9997H11V16.3397ZM2.50995 13.9997L3.68995 12.8196C3.87712 12.6336 4.02561 12.4123 4.12687 12.1686C4.22813 11.9249 4.28016 11.6636 4.27995 11.3996V6.72965C4.2805 6.05505 4.42533 5.38837 4.70474 4.77436C4.98416 4.16035 5.39167 3.6132 5.89995 3.16965C6.40137 2.71533 6.99553 2.3754 7.64129 2.17338C8.28706 1.97136 8.96901 1.91209 9.63995 1.99965C10.7964 2.18743 11.8461 2.78666 12.5958 3.68703C13.3455 4.5874 13.7447 5.72829 13.72 6.89965V11.3996C13.7184 11.6629 13.7689 11.9238 13.8684 12.1675C13.9679 12.4111 14.1146 12.6328 14.3 12.8196L15.49 13.9997H2.50995Z" fill="#D8D8D8"/>
</svg>
