<svg width="20" height="14" viewBox="0 0 20 14" fill="none" xmlns="http://www.w3.org/2000/svg">
<path d="M17.1154 3.73416H13.8462V3.51011C13.8441 2.57978 13.4626 1.68811 12.785 1.03027C12.1074 0.372421 11.189 0.00197314 10.2308 0H3.61538C2.65715 0.00197314 1.73874 0.372421 1.06117 1.03027C0.383591 1.68811 0.00203232 2.57978 0 3.51011V6.94554C0.0205072 7.77725 0.338949 8.57601 0.900531 9.20439C1.46211 9.83277 2.23172 10.2515 3.07692 10.3884V12.4721C3.07797 12.6095 3.11806 12.744 3.19277 12.8608C3.26749 12.9775 3.37394 13.072 3.50039 13.1337C3.62685 13.1955 3.76842 13.2222 3.9095 13.2109C4.05058 13.1996 4.18571 13.1507 4.3 13.0696L7.94615 10.4557H9.56923C9.81514 10.9047 10.1817 11.2806 10.63 11.5436C11.0783 11.8066 11.5916 11.9468 12.1154 11.9493H13.2462L16.5231 13.8911C16.6395 13.9599 16.7726 13.9974 16.9089 13.9999C17.0451 14.0023 17.1796 13.9696 17.2985 13.905C17.4175 13.8404 17.5166 13.7463 17.5858 13.6323C17.655 13.5184 17.6917 13.3886 17.6923 13.2563V11.8597C18.3343 11.7243 18.9107 11.3834 19.3292 10.8918C19.7477 10.4002 19.9839 9.7863 20 9.1487V6.53478C20 5.79201 19.6961 5.07966 19.1551 4.55444C18.6141 4.02923 17.8804 3.73416 17.1154 3.73416ZM7.69231 8.96199C7.5285 8.96359 7.3695 9.01592 7.23846 9.11136L4.61538 10.9934V9.70882C4.61538 9.51075 4.53434 9.32079 4.39008 9.18073C4.24582 9.04067 4.05017 8.96199 3.84615 8.96199C3.26503 8.99049 2.69595 8.79431 2.26345 8.4164C1.83095 8.03849 1.57027 7.50962 1.53846 6.94554V3.51011C1.53846 2.97532 1.75728 2.46243 2.14678 2.08427C2.53628 1.70611 3.06455 1.49366 3.61538 1.49366H10.2308C10.7816 1.49366 11.3099 1.70611 11.6994 2.08427C12.0889 2.46243 12.3077 2.97532 12.3077 3.51011V6.94554C12.3077 7.48034 12.0889 7.99323 11.6994 8.37138C11.3099 8.74954 10.7816 8.96199 10.2308 8.96199H7.69231ZM18.4615 9.1487C18.4339 9.51929 18.2569 9.86435 17.9689 10.109C17.6808 10.3537 17.3051 10.4782 16.9231 10.4557C16.7191 10.4557 16.5234 10.5343 16.3791 10.6744C16.2349 10.8145 16.1538 11.0044 16.1538 11.2025V11.9493L13.8462 10.5901C13.7328 10.5124 13.5999 10.466 13.4615 10.4557H12.1154C11.8681 10.4546 11.6259 10.3874 11.4154 10.2615L11.5462 10.2017L11.7462 10.1196C11.8813 10.0579 12.0123 9.98804 12.1385 9.91047L12.3077 9.80591C12.4601 9.70228 12.6042 9.58743 12.7385 9.46237L12.7923 9.41009C12.9394 9.26475 13.0732 9.10732 13.1923 8.93958L13.2923 8.79022C13.3725 8.66532 13.4444 8.53561 13.5077 8.40186L13.5923 8.20769C13.6475 8.07126 13.6938 7.93157 13.7308 7.78946C13.7308 7.72225 13.7308 7.6625 13.7769 7.59529C13.8208 7.38128 13.844 7.16375 13.8462 6.94554V5.22783H17.1154C17.4724 5.22783 17.8148 5.36552 18.0673 5.61063C18.3197 5.85573 18.4615 6.18816 18.4615 6.53478V9.1487Z" fill="white"/>
</svg>
