<svg width="25" height="28" viewBox="0 0 25 28" fill="none" xmlns="http://www.w3.org/2000/svg">
<path d="M23.68 28.0001C17.8234 28.0001 11.9669 28.0001 6.11041 28.0001C6.09811 27.987 6.08855 27.9679 6.0742 27.9617C5.11576 27.596 4.8022 27.1406 4.8022 26.1113C4.8022 25.76 4.8022 25.4087 4.8022 25.0669C4.74414 25.0546 4.72706 25.0478 4.7093 25.0478C3.70919 25.0464 2.70908 25.0478 1.70897 25.0443C0.693831 25.0409 0.00181499 24.3451 0.00113185 23.3234C-0.000234415 16.1244 -0.000234415 8.92478 0.00044872 1.72515C0.00044872 0.691056 0.694514 0.00143141 1.7322 0.000746582C7.30658 -0.00062308 12.8803 6.17511e-05 18.4547 0.00143141C18.5988 0.00143141 18.7477 0.0055404 18.8871 0.0377275C19.6788 0.219893 20.1789 0.851307 20.1857 1.66968C20.1898 2.09359 20.1864 2.5175 20.1864 2.93251C20.2452 2.94415 20.2629 2.95031 20.2807 2.95031C21.2446 2.95168 22.2098 2.98387 23.1717 2.94415C24.2237 2.90101 25.0046 3.69267 24.9998 4.78498C24.9745 10.0068 24.9882 15.2293 24.9882 20.4519C24.9882 22.4023 24.9895 24.3527 24.9875 26.3031C24.9868 27.0173 24.6644 27.5371 24.0229 27.8535C23.9115 27.9083 23.7947 27.9514 23.68 28.0001ZM19.0975 20.0163C19.0975 19.8862 19.0975 19.7883 19.0975 19.6896C19.0975 18.2494 19.0954 16.8099 19.0989 15.3697C19.0995 14.9424 19.3666 14.7 19.7499 14.7657C20.0293 14.8136 20.1864 15.0348 20.1864 15.3951C20.1878 17.0537 20.1816 18.7124 20.1919 20.371C20.1939 20.6683 20.1003 20.8908 19.8927 21.0977C18.6726 22.3105 17.4573 23.5288 16.2468 24.7512C16.0405 24.9594 15.8178 25.0512 15.522 25.0505C12.4212 25.043 9.32046 25.0457 6.22039 25.0457C6.11519 25.0457 6.01067 25.0457 5.8918 25.0457C5.8918 25.4484 5.89044 25.812 5.8918 26.1757C5.89385 26.6996 6.09674 26.9064 6.61661 26.9064C12.1357 26.9071 17.6554 26.9071 23.1744 26.9064C23.6943 26.9064 23.8992 26.6996 23.8992 26.1757C23.8999 19.0397 23.8999 11.9038 23.8992 4.76786C23.8992 4.24875 23.6916 4.04604 23.1662 4.04467C22.257 4.0433 21.3477 4.04399 20.4385 4.04467C20.3599 4.04467 20.2814 4.05426 20.1871 4.06111C20.1871 4.1789 20.1871 4.2782 20.1871 4.37682C20.1871 6.30872 20.1871 8.24132 20.1871 10.1732C20.1871 10.2643 20.1919 10.3561 20.1816 10.4465C20.1495 10.7266 19.922 10.9306 19.6481 10.9334C19.3735 10.9354 19.1405 10.7348 19.1057 10.4561C19.0934 10.3574 19.0989 10.2561 19.0989 10.1554C19.0989 7.39418 19.0989 4.63226 19.0982 1.87102C19.0982 1.27522 18.913 1.091 18.3126 1.091C12.8297 1.091 7.34688 1.091 1.86404 1.091C1.28133 1.091 1.09005 1.27933 1.09005 1.85527C1.09005 8.96381 1.09005 16.0724 1.09005 23.1809C1.09005 23.7616 1.27996 23.9527 1.85653 23.9527C6.19375 23.9527 10.531 23.9527 14.8682 23.9527C14.9638 23.9527 15.0602 23.9527 15.1462 23.9527C15.1592 23.8966 15.1667 23.8787 15.1667 23.8616C15.1681 23.0508 15.1681 22.2393 15.1695 21.4284C15.1715 20.5498 15.7009 20.017 16.5767 20.0156C17.4026 20.0156 18.2299 20.0163 19.0975 20.0163ZM18.2613 21.1086C17.7046 21.1086 17.1704 21.1072 16.6368 21.1093C16.3123 21.11 16.2604 21.1634 16.2584 21.4907C16.257 21.6818 16.2584 21.8729 16.2584 22.0633C16.2584 22.4118 16.2584 22.7597 16.2584 23.1289C16.9388 22.4427 17.5878 21.788 18.2613 21.1086Z" fill="#F29E2A"/>
<path d="M10.064 5.24862C8.03779 5.24862 6.01161 5.24862 3.98475 5.24862C3.8939 5.24862 3.80236 5.25342 3.71218 5.24178C3.44029 5.20753 3.22716 4.96442 3.22852 4.70007C3.22989 4.43436 3.44439 4.19535 3.71696 4.16248C3.80645 4.15152 3.89868 4.15632 3.98953 4.15632C8.06033 4.15632 12.1311 4.15632 16.2019 4.15632C16.2381 4.15632 16.2743 4.15563 16.3112 4.15632C16.6993 4.16111 16.9609 4.38231 16.9588 4.70487C16.9568 5.02742 16.6972 5.24725 16.3065 5.24794C14.2256 5.24931 12.1448 5.24862 10.064 5.24862Z" fill="#F29E2A"/>
<path d="M10.1006 8.09198C8.02869 8.09198 5.95675 8.09267 3.88548 8.0913C3.4066 8.09061 3.10466 7.74957 3.28159 7.37359C3.35469 7.21882 3.55348 7.11336 3.71196 7.01337C3.77823 6.9716 3.88958 7.00105 3.98044 7.00105C8.05124 7.00105 12.122 7.00105 16.1935 7.00105C16.6888 7.00105 16.9532 7.18732 16.9593 7.53932C16.9661 7.89817 16.6929 8.09267 16.1805 8.09267C14.1537 8.09198 12.1268 8.09198 10.1006 8.09198Z" fill="#F29E2A"/>
<path d="M10.0913 9.84453C12.1632 9.84453 14.2345 9.84385 16.3065 9.84522C16.7819 9.8459 17.0845 10.1938 16.9049 10.5677C16.8304 10.7225 16.6303 10.8252 16.4704 10.9245C16.4041 10.9656 16.2928 10.9362 16.2019 10.9362C12.1311 10.9362 8.06034 10.9362 3.98954 10.9362C3.49768 10.9362 3.23058 10.7451 3.22853 10.3924C3.22648 10.0397 3.49563 9.84453 3.98476 9.84453C6.0205 9.84453 8.05556 9.84453 10.0913 9.84453Z" fill="#F29E2A"/>
<path d="M4.89645 19.4671C3.81915 19.4616 2.94405 18.5754 2.94678 17.4934C2.94952 16.4018 3.84374 15.5211 4.93676 15.5327C6.01201 15.5443 6.88096 16.4367 6.87276 17.5201C6.86388 18.5987 5.97649 19.4725 4.89645 19.4671ZM4.90328 18.3727C5.36508 18.3775 5.77633 17.9721 5.78111 17.5064C5.78589 17.0434 5.38148 16.6319 4.91695 16.6264C4.45515 16.6216 4.0439 17.027 4.03912 17.4927C4.03434 17.9556 4.43875 18.3679 4.90328 18.3727Z" fill="#F29E2A"/>
<path d="M6.62493 13.7795C5.68972 13.7795 4.75451 13.7823 3.8193 13.7782C3.50027 13.7768 3.29123 13.6001 3.23932 13.3118C3.19628 13.0742 3.3452 12.8146 3.58703 12.729C3.67037 12.6995 3.76465 12.6906 3.85345 12.6906C5.70543 12.6886 7.55809 12.6879 9.41007 12.69C9.7899 12.6906 10.0304 12.9009 10.0358 13.2248C10.042 13.559 9.79604 13.7788 9.40324 13.7802C8.47759 13.7816 7.55126 13.7802 6.62493 13.7795Z" fill="#F29E2A"/>
<path d="M10.2128 16.9537C10.7948 16.9537 11.3762 16.9517 11.9582 16.9544C12.3517 16.9565 12.6031 17.1749 12.599 17.505C12.5956 17.8337 12.3456 18.0447 11.9473 18.0447C10.7839 18.046 9.62053 18.046 8.45715 18.0447C8.05273 18.044 7.80954 17.8413 7.80475 17.5078C7.79997 17.166 8.05 16.9551 8.4674 16.9537C9.04943 16.9531 9.63146 16.9537 10.2128 16.9537Z" fill="#F29E2A"/>
<path d="M12.5988 13.2406C12.5947 13.5317 12.3454 13.7775 12.0543 13.7782C11.7483 13.7782 11.5037 13.5235 11.514 13.2146C11.5235 12.9194 11.7722 12.6838 12.0673 12.6907C12.3563 12.6975 12.6029 12.9516 12.5988 13.2406Z" fill="#F29E2A"/>
<path d="M19.6452 12.3483C19.9431 12.3503 20.1835 12.5893 20.1849 12.8845C20.1863 13.1728 19.939 13.4296 19.6521 13.4372C19.359 13.4447 19.0933 13.1762 19.0987 12.8777C19.1042 12.5825 19.3481 12.3462 19.6452 12.3483Z" fill="#F29E2A"/>
</svg>
