<svg width="11" height="11" viewBox="0 0 11 11" fill="none" xmlns="http://www.w3.org/2000/svg">
<path d="M11 0.681359C11 0.497613 10.9285 0.324793 10.7986 0.194986C10.5388 -0.0649954 10.0862 -0.0649954 9.82641 0.194986L5.5 4.52398L1.17358 0.194986C0.913756 -0.0649954 0.461241 -0.0649954 0.201414 0.194986C0.0715142 0.324793 0 0.497617 0 0.681359C0 0.865083 0.0715142 1.0379 0.201417 1.16773L4.52783 5.49672L0.201417 9.82572C0.0715142 9.95552 0 10.1283 0 10.3121C0 10.4958 0.0715142 10.6686 0.201417 10.7985C0.461244 11.0584 0.913759 11.0584 1.17359 10.7985L5.5 6.46947L9.82642 10.7985C9.95634 10.9284 10.1289 11 10.3125 11C10.4961 11 10.6687 10.9284 10.7986 10.7985C10.9285 10.6686 11 10.4958 11 10.3121C11 10.1283 10.9285 9.95552 10.7986 9.82572L6.47217 5.49672L10.7986 1.16773C10.9285 1.03791 11 0.865083 11 0.681359Z" fill="#151719"/>
</svg>
