<svg width="20" height="17" viewBox="0 0 20 17" fill="none" xmlns="http://www.w3.org/2000/svg">
<g opacity="0.5">
<path d="M11.5409 14.2278C11.5409 14.8637 11.0213 15.3833 10.3854 15.3833H2.69379C2.05795 15.3833 1.53833 14.8637 1.53833 14.2278V2.69379C1.53833 2.05794 2.05795 1.53833 2.69379 1.53833H10.0026C10.7341 1.53833 11.5409 2.13999 11.5409 2.69379V4.61499H13.0792V2.69379C13.0792 1.14862 11.452 0 10.0026 0H2.69379C1.21015 0 0 1.21015 0 2.69379V14.2347C0 15.7183 1.21015 16.9285 2.69379 16.9285H10.3854C11.8691 16.9285 13.0792 15.7183 13.0792 14.2347V12.3066H11.5409V14.2278Z" fill="white"/>
<path d="M19.7793 7.91736L15.9301 4.06812L14.843 5.1552L17.3727 7.6849H6.15314V9.22323H17.3727L14.843 11.7529L15.9301 12.84L19.7793 8.99077C20.0733 8.70362 20.0733 8.21819 19.7793 7.91736Z" fill="white"/>
</g>
</svg>
