<svg width="14" height="19" viewBox="0 0 14 19" fill="none" xmlns="http://www.w3.org/2000/svg">
<path d="M14 11.325C14 7.09293 10.6377 3.65008 6.50469 3.65008L2.39132 3.65008L5.07246 0.904364L4.18926 -4.28841e-07L7.66168e-07 4.28966L4.18926 8.57931L5.07246 7.67495L2.39132 4.92923L6.50469 4.92923C9.94878 4.92923 12.7508 7.79839 12.7508 11.325C12.7508 14.8517 9.94878 17.7208 6.50469 17.7208C4.83635 17.7208 3.26796 17.0557 2.08776 15.8475L1.20456 16.7522C1.899 17.467 2.72501 18.0338 3.63477 18.4196C4.54453 18.8055 5.51998 19.0027 6.50469 19C10.6377 19 14 15.5571 14 11.325Z" fill="black"/>
</svg>
