<svg width="20" height="21" viewBox="0 0 20 21" fill="none" xmlns="http://www.w3.org/2000/svg">
<g opacity="0.5">
<path d="M18.0892 10.5494V9.45374L19.5021 8.24976C20.0385 7.7911 20.1562 7.01393 19.7834 6.42149L18.0434 3.55486C17.6901 2.9688 16.9641 2.69487 16.2969 2.91146L14.5111 3.49753C14.2037 3.30005 13.8831 3.11531 13.5495 2.96243L13.1767 1.15327C13.0393 0.471647 12.4179 -0.0124949 11.7049 0.000245645H8.25765C7.54465 -0.0124949 6.92323 0.471647 6.78587 1.15327L6.41302 2.95606C6.07941 3.11531 5.75235 3.29368 5.44491 3.49116L3.69185 2.87961C3.53486 2.84139 3.37787 2.82228 3.22088 2.83502C2.69758 2.83502 2.21353 3.10894 1.94533 3.55486L0.2119 6.42149C-0.141328 7.01393 -0.0170436 7.76562 0.512798 8.21791L1.90609 9.46011V10.5558L0.512798 11.7598C-0.0301261 12.2184 -0.160951 12.9892 0.2119 13.5881L1.94533 16.4547C2.29856 17.0407 3.02464 17.3147 3.69185 17.0981L5.47761 16.512C5.78505 16.7095 6.10558 16.8942 6.43918 17.0471L6.81203 18.8499C6.9494 19.5315 7.57082 20.0157 8.28382 20.0029H11.7572C12.4702 20.0157 13.0916 19.5315 13.229 18.8499L13.6019 17.0471C13.9355 16.8879 14.2625 16.7095 14.5765 16.512L16.3557 17.0981C17.0229 17.3083 17.749 17.0407 18.1022 16.4547L19.7834 13.5881C20.1366 12.9956 20.0123 12.2376 19.4759 11.7853L18.0892 10.5494ZM16.7744 15.7348L14.2494 14.9067C13.6607 15.3972 12.9804 15.7731 12.2544 16.0342L11.7311 18.6078H8.25765L7.73435 16.0661C7.01481 15.8049 6.34106 15.4227 5.74581 14.9386L3.22088 15.7348L1.48745 12.8682L3.48907 11.1482C3.35171 10.4093 3.35171 9.64485 3.48907 8.9059L1.4809 7.13496L3.22088 4.26833L5.74581 5.10284C6.33452 4.61233 7.01481 4.23648 7.74089 3.9753L8.26419 1.40171H11.7376L12.2609 3.94345C12.9804 4.20463 13.6542 4.58685 14.2494 5.07099L16.7744 4.26833L18.5143 7.13496L16.5127 8.85494C16.6501 9.59389 16.6501 10.3583 16.5127 11.0973L18.5143 12.8682L16.7744 15.7348Z" fill="white"/>
<path d="M9.99776 14.3016C7.58403 14.2762 5.64782 12.3523 5.66745 10.0017C5.68707 7.65106 7.66907 5.76546 10.0828 5.78457C12.4965 5.80368 14.4327 7.73387 14.4131 10.0845C14.4 11.1993 13.9421 12.2631 13.131 13.0531C12.3003 13.8621 11.1686 14.308 9.99776 14.3016ZM9.99776 7.13507C8.40823 7.09685 7.09344 8.32631 7.05419 9.87429C7.05419 9.91888 7.05419 9.9571 7.05419 10.0017C7.01494 11.5497 8.27741 12.8301 9.86693 12.8683C9.91272 12.8683 9.95197 12.8683 9.99776 12.8683C11.5873 12.9065 12.9021 11.6771 12.9413 10.1291C12.9413 10.0845 12.9413 10.0463 12.9413 10.0017C12.9806 8.45372 11.7181 7.17329 10.1286 7.13507C10.0828 7.13507 10.0435 7.13507 9.99776 7.13507Z" fill="white"/>
</g>
</svg>
