<svg width="24" height="24" viewBox="0 0 24 24" fill="none" xmlns="http://www.w3.org/2000/svg">
<path opacity="0.39" d="M12 0C8.8174 0 5.76515 1.26431 3.51472 3.51481C1.26428 5.76531 0 8.81763 0 12.0003C8.2043e-05 13.5762 0.310553 15.1367 0.913685 16.5926C1.51682 18.0485 2.4008 19.3714 3.51516 20.4856C4.62952 21.5999 5.95244 22.4838 7.40838 23.0868C8.86432 23.6898 10.4248 24.0001 12.0006 24C13.5765 23.9999 15.1369 23.6894 16.5928 23.0863C18.0487 22.4831 19.3715 21.5991 20.4857 20.4847C21.6 19.3704 22.4838 18.0474 23.0868 16.5914C23.6898 15.1355 24.0001 13.575 24 11.9991C24 5.37264 18.6263 0 12 0ZM12 21.4993C10.7434 21.5137 9.49634 21.2787 8.33118 20.8077C7.16602 20.3368 6.10588 19.6393 5.21215 18.7558C4.31843 17.8722 3.60889 16.8201 3.12464 15.6604C2.64038 14.5007 2.39103 13.2564 2.39103 11.9997C2.39103 10.7429 2.64038 9.49866 3.12464 8.33895C3.60889 7.17923 4.31843 6.12713 5.21215 5.24358C6.10588 4.36003 7.16602 3.66259 8.33118 3.19165C9.49634 2.72072 10.7434 2.48565 12 2.50007C13.2566 2.48565 14.5037 2.72072 15.6688 3.19165C16.834 3.66259 17.8941 4.36003 18.7878 5.24358C19.6816 6.12713 20.3911 7.17923 20.8754 8.33895C21.3596 9.49866 21.609 10.7429 21.609 11.9997C21.609 13.2564 21.3596 14.5007 20.8754 15.6604C20.3911 16.8201 19.6816 17.8722 18.7878 18.7558C17.8941 19.6393 16.834 20.3368 15.6688 20.8077C14.5037 21.2787 13.2566 21.5137 12 21.4993ZM8.87625 11.6878C9.91125 11.6878 10.75 10.709 10.75 9.50025C10.75 8.29147 9.91 7.31269 8.875 7.31269C7.84 7.31269 7 8.29147 7 9.50025C7 10.709 7.84 11.6878 8.87625 11.6878ZM15.125 11.6878C16.1613 11.6878 17 10.709 17 9.50025C17 8.29147 16.16 7.31269 15.125 7.31269C14.09 7.31269 13.25 8.29272 13.25 9.50025C13.25 10.7078 14.09 11.6878 15.125 11.6878ZM17.4263 13.6704C17.2056 13.5591 16.9502 13.5386 16.7147 13.6134C16.4791 13.6881 16.2823 13.8522 16.1663 14.0704C16.1238 14.1529 15.08 16.0617 12.0013 16.0617C8.9375 16.0617 7.8875 14.1704 7.835 14.0716C7.72261 13.8497 7.52666 13.6814 7.29025 13.604C7.05384 13.5265 6.79633 13.5461 6.57438 13.6585C6.35242 13.7709 6.1842 13.9668 6.10673 14.2032C6.02925 14.4397 6.04886 14.6972 6.16125 14.9191C6.22375 15.0429 7.72125 17.9367 12.0013 17.9367C16.2825 17.9367 17.7775 15.0416 17.8387 14.9179C17.9489 14.6977 17.9673 14.4428 17.89 14.209C17.8127 13.9752 17.646 13.7815 17.4263 13.6704Z" fill="#D8D8D8"/>
</svg>
