<svg width="22" height="24" viewBox="0 0 22 24" fill="none" xmlns="http://www.w3.org/2000/svg">
<path opacity="0.39" d="M20.3178 10.4116L10.9266 20.4068C9.12181 22.3276 6.07068 22.4525 4.1084 20.6859C2.14611 18.9193 2.01852 15.9326 3.82327 14.0118L14.0312 3.14736C15.1581 1.94793 17.0672 1.86978 18.2925 2.97293C19.5178 4.07607 19.5977 5.94483 18.4707 7.14426L9.89609 16.2704C9.44695 16.7484 8.68434 16.7838 8.19155 16.3401C7.69876 15.8965 7.67112 15.1496 8.12027 14.6716L15.8783 6.41465L14.5464 5.21559L6.7884 13.4725C5.66145 14.672 5.74129 16.5407 6.9666 17.6439C8.19192 18.747 10.101 18.6689 11.228 17.4694L19.8026 8.34333C21.6073 6.4225 21.4798 3.43583 19.5175 1.6692C17.5552 -0.0974314 14.5041 0.0274645 12.6993 1.94829L2.49141 12.8127C0.00884822 15.4549 0.188637 19.5635 2.88345 21.9896C5.57826 24.4158 9.77587 24.2481 12.2584 21.6059L21.6497 11.6106L20.3178 10.4116Z" fill="#D8D8D8"/>
</svg>
