<svg width="30" height="28" viewBox="0 0 30 28" fill="none" xmlns="http://www.w3.org/2000/svg">
<path d="M18.0099 6.05794C19.3192 6.289 20.5225 6.86819 21.4657 7.72139C22.409 8.57459 23.0493 9.66298 23.3048 10.8473M18.0099 1.20801C20.7301 1.48135 23.2667 2.58318 25.2032 4.33259C27.1397 6.082 28.361 8.37501 28.6667 10.8351M27.3262 20.5107V24.1482C27.3277 24.4859 27.2512 24.8201 27.1017 25.1295C26.9521 25.4389 26.7328 25.7167 26.4577 25.9449C26.1826 26.1732 25.8578 26.347 25.5041 26.4552C25.1505 26.5634 24.7758 26.6036 24.404 26.5732C20.2791 26.1678 16.3169 24.8928 12.8357 22.8508C9.59684 20.9893 6.85088 18.5055 4.7928 15.5759C2.52737 12.4128 1.11755 8.81149 0.677544 5.06371C0.644047 4.72841 0.6881 4.39049 0.806901 4.07144C0.925701 3.75239 1.11664 3.45921 1.36758 3.21057C1.61851 2.96193 1.92392 2.76327 2.26439 2.62725C2.60485 2.49122 2.97289 2.42081 3.34509 2.42049H7.36652C8.01706 2.4147 8.64773 2.62307 9.14098 3.00677C9.63424 3.39046 9.95642 3.9233 10.0475 4.50596C10.2172 5.67003 10.532 6.81299 10.9858 7.91304C11.1662 8.34702 11.2052 8.81866 11.0983 9.27209C10.9914 9.72552 10.743 10.1417 10.3826 10.4714L8.68018 12.0112C10.5884 15.0467 13.3671 17.5601 16.723 19.2861L18.4254 17.7463C18.7899 17.4203 19.25 17.1956 19.7513 17.0989C20.2526 17.0022 20.774 17.0375 21.2538 17.2007C22.47 17.6112 23.7336 17.8959 25.0206 18.0494C25.6717 18.1325 26.2664 18.4292 26.6915 18.883C27.1166 19.3368 27.3425 19.9161 27.3262 20.5107Z" stroke="#F29E2A" stroke-width="1.2" stroke-linecap="round" stroke-linejoin="round"/>
</svg>
