<svg width="12" height="17" viewBox="0 0 12 17" fill="none" xmlns="http://www.w3.org/2000/svg">
<path d="M3.17641 7.05905L3.17641 16.2355C3.17641 16.4227 3.10204 16.6023 2.96966 16.7347C2.83729 16.867 2.65774 16.9414 2.47053 16.9414C2.28332 16.9414 2.10378 16.867 1.9714 16.7347C1.83902 16.6023 1.76465 16.4227 1.76465 16.2355L1.76465 7.05905C1.76465 6.87184 1.83902 6.6923 1.9714 6.55992C2.10377 6.42754 2.28332 6.35317 2.47053 6.35317C2.65774 6.35317 2.83729 6.42754 2.96966 6.55992C3.10204 6.6923 3.17641 6.87184 3.17641 7.05905ZM3.17641 0.706114L3.17641 3.52964C3.17641 3.71685 3.10204 3.8964 2.96966 4.02878C2.83729 4.16116 2.65774 4.23553 2.47053 4.23553C2.28332 4.23553 2.10377 4.16116 1.9714 4.02878C1.83902 3.8964 1.76465 3.71686 1.76465 3.52964L1.76465 0.706114C1.76465 0.518904 1.83902 0.339359 1.9714 0.20698C2.10377 0.0746021 2.28332 0.000232674 2.47053 0.000232666C2.65774 0.000232657 2.83729 0.0746021 2.96966 0.20698C3.10204 0.339359 3.17641 0.518904 3.17641 0.706114Z" fill="white"/>
<path d="M4.94118 5.29435C4.94118 5.78299 4.79628 6.26065 4.52481 6.66693C4.25334 7.07322 3.86748 7.38988 3.41604 7.57687C2.9646 7.76387 2.46785 7.81279 1.9886 7.71747C1.50935 7.62214 1.06914 7.38684 0.723619 7.04132C0.378101 6.6958 0.1428 6.25558 0.0474723 5.77634C-0.0478559 5.29709 0.00106993 4.80034 0.188063 4.3489C0.375056 3.89746 0.691717 3.5116 1.098 3.24013C1.50429 2.96866 1.98195 2.82376 2.47059 2.82376C3.12583 2.82376 3.75423 3.08405 4.21756 3.54738C4.68088 4.0107 4.94118 4.63911 4.94118 5.29435ZM1.41176 5.29435C1.41176 5.50376 1.47386 5.70848 1.59021 5.8826C1.70655 6.05672 1.87192 6.19243 2.06539 6.27257C2.25887 6.35271 2.47176 6.37368 2.67716 6.33283C2.88255 6.29197 3.07121 6.19113 3.21929 6.04305C3.36737 5.89497 3.46821 5.70631 3.50907 5.50091C3.54992 5.29552 3.52895 5.08263 3.44881 4.88916C3.36867 4.69568 3.23296 4.53032 3.05884 4.41397C2.88472 4.29762 2.68 4.23553 2.47059 4.23553C2.18977 4.23553 1.92045 4.34708 1.72189 4.54565C1.52332 4.74422 1.41176 5.01353 1.41176 5.29435ZM10.2353 0.706113L10.2353 9.88258C10.2353 10.0698 10.1609 10.2493 10.0285 10.3817C9.89617 10.5141 9.71662 10.5885 9.52941 10.5885C9.3422 10.5885 9.16265 10.5141 9.03028 10.3817C8.8979 10.2493 8.82353 10.0698 8.82353 9.88258L8.82353 0.706113C8.82353 0.518903 8.8979 0.339359 9.03028 0.206979C9.16265 0.0746017 9.3422 0.000232288 9.52941 0.00023228C9.71662 0.000232272 9.89617 0.0746017 10.0285 0.206979C10.1609 0.339359 10.2353 0.518903 10.2353 0.706113ZM10.2353 13.412L10.2353 16.2355C10.2353 16.4227 10.1609 16.6023 10.0285 16.7347C9.89617 16.867 9.71662 16.9414 9.52941 16.9414C9.3422 16.9414 9.16265 16.867 9.03028 16.7347C8.8979 16.6023 8.82353 16.4227 8.82353 16.2355L8.82353 13.412C8.82353 13.2248 8.8979 13.0452 9.03028 12.9129C9.16265 12.7805 9.3422 12.7061 9.52941 12.7061C9.71662 12.7061 9.89617 12.7805 10.0285 12.9129C10.1609 13.0452 10.2353 13.2248 10.2353 13.412Z" fill="white"/>
<path d="M12 11.6476C12 12.1362 11.8551 12.6139 11.5836 13.0202C11.3122 13.4264 10.9263 13.7431 10.4749 13.9301C10.0234 14.1171 9.52669 14.166 9.04744 14.0707C8.56819 13.9754 8.12797 13.7401 7.78246 13.3945C7.43694 13.049 7.20164 12.6088 7.10631 12.1296C7.01098 11.6503 7.05991 11.1536 7.2469 10.7021C7.43389 10.2507 7.75056 9.86483 8.15684 9.59336C8.56313 9.32188 9.04079 9.17699 9.52943 9.17699C10.1847 9.17699 10.8131 9.43728 11.2764 9.90061C11.7397 10.3639 12 10.9923 12 11.6476ZM8.4706 11.6476C8.4706 11.857 8.5327 12.0617 8.64905 12.2358C8.76539 12.4099 8.93076 12.5457 9.12423 12.6258C9.31771 12.7059 9.5306 12.7269 9.73599 12.6861C9.94138 12.6452 10.13 12.5444 10.2781 12.3963C10.4262 12.2482 10.5271 12.0595 10.5679 11.8541C10.6088 11.6487 10.5878 11.4359 10.5077 11.2424C10.4275 11.0489 10.2918 10.8835 10.1177 10.7672C9.94355 10.6509 9.73884 10.5888 9.52943 10.5888C9.24861 10.5888 8.97929 10.7003 8.78073 10.8989C8.58216 11.0974 8.4706 11.3668 8.4706 11.6476Z" fill="white"/>
</svg>
