<svg width="12" height="17" viewBox="0 0 12 17" fill="none" xmlns="http://www.w3.org/2000/svg">
<path d="M3.17641 7.11765L3.17641 16.2941C3.17641 16.4813 3.10204 16.6609 2.96966 16.7933C2.83729 16.9256 2.65774 17 2.47053 17C2.28332 17 2.10378 16.9256 1.9714 16.7933C1.83902 16.6609 1.76465 16.4813 1.76465 16.2941L1.76465 7.11765C1.76465 6.93044 1.83902 6.75089 1.9714 6.61851C2.10377 6.48614 2.28332 6.41177 2.47053 6.41177C2.65774 6.41177 2.83729 6.48614 2.96966 6.61851C3.10204 6.75089 3.17641 6.93044 3.17641 7.11765ZM3.17641 0.764708L3.17641 3.58824C3.17641 3.77545 3.10204 3.95499 2.96966 4.08737C2.83729 4.21975 2.65774 4.29412 2.47053 4.29412C2.28332 4.29412 2.10377 4.21975 1.9714 4.08737C1.83902 3.95499 1.76465 3.77545 1.76465 3.58824L1.76465 0.764708C1.76465 0.577497 1.83902 0.397953 1.9714 0.265573C2.10377 0.133196 2.28332 0.0588264 2.47053 0.0588264C2.65774 0.0588264 2.83729 0.133196 2.96966 0.265573C3.10204 0.397953 3.17641 0.577497 3.17641 0.764708Z" fill="black"/>
<path d="M4.94118 5.35294C4.94118 5.84158 4.79628 6.31924 4.52481 6.72553C4.25334 7.13181 3.86748 7.44847 3.41604 7.63547C2.9646 7.82246 2.46785 7.87139 1.9886 7.77606C1.50935 7.68073 1.06914 7.44543 0.723619 7.09991C0.378101 6.75439 0.1428 6.31418 0.0474723 5.83493C-0.0478559 5.35568 0.00106993 4.85893 0.188063 4.40749C0.375056 3.95605 0.691717 3.5702 1.098 3.29872C1.50429 3.02725 1.98195 2.88235 2.47059 2.88235C3.12583 2.88235 3.75423 3.14265 4.21756 3.60597C4.68088 4.0693 4.94118 4.6977 4.94118 5.35294ZM1.41176 5.35294C1.41176 5.56236 1.47386 5.76707 1.59021 5.94119C1.70655 6.11532 1.87192 6.25103 2.06539 6.33117C2.25887 6.41131 2.47176 6.43228 2.67716 6.39142C2.88255 6.35057 3.07121 6.24972 3.21929 6.10164C3.36737 5.95356 3.46821 5.7649 3.50907 5.55951C3.54992 5.35412 3.52895 5.14122 3.44881 4.94775C3.36867 4.75427 3.23296 4.58891 3.05884 4.47256C2.88472 4.35622 2.68 4.29412 2.47059 4.29412C2.18977 4.29412 1.92045 4.40567 1.72189 4.60424C1.52332 4.80281 1.41176 5.07213 1.41176 5.35294ZM10.2353 0.764707L10.2353 9.94118C10.2353 10.1284 10.1609 10.3079 10.0285 10.4403C9.89617 10.5727 9.71662 10.6471 9.52941 10.6471C9.3422 10.6471 9.16265 10.5727 9.03028 10.4403C8.8979 10.3079 8.82353 10.1284 8.82353 9.94118L8.82353 0.764707C8.82353 0.577497 8.8979 0.397953 9.03028 0.265573C9.16265 0.133195 9.3422 0.058826 9.52941 0.058826C9.71662 0.058826 9.89617 0.133195 10.0285 0.265573C10.1609 0.397953 10.2353 0.577497 10.2353 0.764707ZM10.2353 13.4706L10.2353 16.2941C10.2353 16.4813 10.1609 16.6609 10.0285 16.7933C9.89617 16.9256 9.71662 17 9.52941 17C9.3422 17 9.16265 16.9256 9.03028 16.7933C8.8979 16.6609 8.82353 16.4813 8.82353 16.2941L8.82353 13.4706C8.82353 13.2834 8.8979 13.1038 9.03028 12.9715C9.16265 12.8391 9.3422 12.7647 9.52941 12.7647C9.71662 12.7647 9.89617 12.8391 10.0285 12.9715C10.1609 13.1038 10.2353 13.2834 10.2353 13.4706Z" fill="black"/>
<path d="M11.9998 11.7062C11.9998 12.1948 11.8549 12.6725 11.5834 13.0788C11.3119 13.485 10.9261 13.8017 10.4746 13.9887C10.0232 14.1757 9.52644 14.2246 9.0472 14.1293C8.56795 14.034 8.12773 13.7987 7.78221 13.4531C7.43669 13.1076 7.20139 12.6674 7.10607 12.1882C7.01074 11.7089 7.05966 11.2122 7.24666 10.7607C7.43365 10.3093 7.75031 9.92342 8.1566 9.65195C8.56288 9.38048 9.04055 9.23558 9.52918 9.23558C10.1844 9.23558 10.8128 9.49587 11.2762 9.9592C11.7395 10.4225 11.9998 11.0509 11.9998 11.7062ZM8.47036 11.7062C8.47036 11.9156 8.53246 12.1203 8.6488 12.2944C8.76515 12.4685 8.93051 12.6043 9.12399 12.6844C9.31746 12.7645 9.53036 12.7855 9.73575 12.7446C9.94114 12.7038 10.1298 12.6029 10.2779 12.4549C10.426 12.3068 10.5268 12.1181 10.5677 11.9127C10.6085 11.7073 10.5875 11.4944 10.5074 11.301C10.4273 11.1075 10.2916 10.9421 10.1174 10.8258C9.94331 10.7094 9.7386 10.6473 9.52918 10.6473C9.24837 10.6473 8.97905 10.7589 8.78048 10.9575C8.58191 11.156 8.47036 11.4254 8.47036 11.7062Z" fill="black"/>
</svg>
