<svg width="20" height="18" viewBox="0 0 20 18" fill="none" xmlns="http://www.w3.org/2000/svg">
<path d="M19.7358 16.8261L16.9871 10.3496C16.9038 10.1622 16.7164 10.0371 16.5082 10.0371L11.4273 10.0373V11.0576H16.1753L18.4867 16.4929H1.28591L3.59733 11.0576H8.34538V10.0371L3.24336 10.0373C3.03518 10.0373 2.84778 10.1622 2.76446 10.3497L0.0363282 16.8259C-0.026195 16.9717 -0.00523847 17.1591 0.0778952 17.3048C0.161199 17.4506 0.327812 17.5339 0.515206 17.5339H19.2568C19.4234 17.5339 19.59 17.4506 19.6941 17.3048C19.7776 17.1591 19.7984 16.9717 19.7358 16.8259L19.7358 16.8261Z" fill="#E5972A"/>
<path d="M5.24234 7.14275H9.36556L9.36538 13.348C9.36538 13.6395 9.59452 13.8687 9.88601 13.8687C10.1775 13.8687 10.4066 13.6395 10.4066 13.348V7.14275H14.5298C14.8213 7.14275 15.0505 6.91362 15.0505 6.62213V0.520625C15.0505 0.229141 14.8213 0 14.5298 0H5.24261C4.95112 0 4.72198 0.229132 4.72198 0.520625V6.62213C4.72198 6.91361 4.95094 7.14275 5.24261 7.14275H5.24234ZM5.74199 1.04125H14.0091V6.12217L5.74199 6.122V1.04125Z" fill="#E5972A"/>
<path d="M7.36663 3.06078H12.3851C12.6766 3.06078 12.9057 2.83165 12.9057 2.54016C12.9057 2.24867 12.6766 2.01953 12.3851 2.01953L7.36663 2.0197C7.07515 2.0197 6.84601 2.24883 6.84601 2.54033C6.86679 2.83181 7.09593 3.06078 7.36663 3.06078V3.06078Z" fill="#E5972A"/>
<path d="M12.9057 4.58117C12.9057 4.28969 12.6766 4.06055 12.3851 4.06055H7.36663C7.07515 4.06055 6.84601 4.28968 6.84601 4.58117C6.84601 4.87266 7.07514 5.10179 7.36663 5.10179H12.3851C12.6766 5.10179 12.9057 4.87266 12.9057 4.58117Z" fill="#E5972A"/>
</svg>
