<svg width="37" height="37" viewBox="0 0 37 37" fill="none" xmlns="http://www.w3.org/2000/svg">
<rect x="0.353516" y="0.589844" width="36" height="36" rx="3" fill="white" fill-opacity="0.17"/>
<path d="M30.8714 28.6521L27.3372 20.3251C27.2301 20.0841 26.9892 19.9233 26.7215 19.9233L20.1889 19.9236V21.2353H26.2935L29.2654 28.2236H7.15002L10.1218 21.2353H16.2265V19.9233L9.66673 19.9236C9.39907 19.9236 9.15814 20.0841 9.05101 20.3253L5.54341 28.6517C5.46302 28.8392 5.48997 29.0802 5.59686 29.2675C5.70396 29.455 5.91818 29.5621 6.15911 29.5621H30.2554C30.4697 29.5621 30.6839 29.455 30.8177 29.2675C30.925 29.0802 30.9517 28.8393 30.8714 28.6517L30.8714 28.6521Z" fill="#E5972A"/>
<path d="M12.2364 16.2021H17.5377L17.5375 24.1803C17.5375 24.5551 17.8321 24.8497 18.2068 24.8497C18.5816 24.8497 18.8762 24.5551 18.8762 24.1803V16.2021H24.1775C24.5523 16.2021 24.8469 15.9075 24.8469 15.5327V7.68793C24.8469 7.31316 24.5523 7.01855 24.1775 7.01855H12.2368C11.862 7.01855 11.5674 7.31315 11.5674 7.68793V15.5327C11.5674 15.9075 11.8618 16.2021 12.2368 16.2021H12.2364ZM12.8788 8.3573H23.5079V14.8899L12.8788 14.8897V8.3573Z" fill="#E5972A"/>
<path d="M14.9676 10.9545H21.4199C21.7947 10.9545 22.0893 10.6599 22.0893 10.2851C22.0893 9.91033 21.7947 9.61572 21.4199 9.61572L14.9676 9.61594C14.5928 9.61594 14.2982 9.91054 14.2982 10.2853C14.3249 10.6601 14.6195 10.9545 14.9676 10.9545V10.9545Z" fill="#E5972A"/>
<path d="M22.0893 12.9091C22.0893 12.5344 21.7947 12.2397 21.4199 12.2397H14.9676C14.5928 12.2397 14.2982 12.5343 14.2982 12.9091C14.2982 13.2839 14.5928 13.5785 14.9676 13.5785H21.4199C21.7947 13.5785 22.0893 13.2839 22.0893 12.9091Z" fill="#E5972A"/>
</svg>
