<svg width="34" height="30" viewBox="0 0 34 30" fill="none" xmlns="http://www.w3.org/2000/svg">
<path fill-rule="evenodd" clip-rule="evenodd" d="M5.66667 6.00629C4.57778 6.00629 3.68334 6.81732 3.68334 7.80465V23.2192C3.68334 24.2065 4.57778 25.0175 5.66667 25.0175H28.3333C29.4222 25.0175 30.3167 24.2065 30.3167 23.2192V7.80465C30.3167 6.81732 29.4222 6.00629 28.3333 6.00629H5.66667ZM1.98334 7.80465C1.98334 5.966 3.6389 4.46484 5.66667 4.46484H28.3333C30.3611 4.46484 32.0167 5.966 32.0167 7.80465V23.2192C32.0167 25.0578 30.3611 26.559 28.3333 26.559H5.66667C3.6389 26.559 1.98334 25.0578 1.98334 23.2192V7.80465Z" fill="#F29E2A"/>
<path fill-rule="evenodd" clip-rule="evenodd" d="M2.137 7.36299C2.40621 7.01428 2.93621 6.92947 3.32079 7.17357L17 15.856L30.6792 7.17357C31.0638 6.92947 31.5938 7.01428 31.863 7.36299C32.1322 7.7117 32.0387 8.19227 31.6541 8.43637L17.4875 17.4282C17.1948 17.6139 16.8052 17.6139 16.5126 17.4282L2.34591 8.43637C1.96132 8.19227 1.86779 7.7117 2.137 7.36299Z" fill="#F29E2A"/>
</svg>
