<svg width="28" height="26" viewBox="0 0 28 26" fill="none" xmlns="http://www.w3.org/2000/svg">
<g clip-path="url(#clip0_1382_24235)">
<path fill-rule="evenodd" clip-rule="evenodd" d="M14 1.87806C11.4473 1.87806 8.99914 2.82452 7.1941 4.50922C5.38906 6.19392 4.375 8.47887 4.375 10.8614C4.375 14.3465 6.79207 17.6658 9.34284 20.1788C10.6042 21.4214 11.8678 22.4373 12.8169 23.1426C13.2909 23.4949 13.6851 23.7687 13.9594 23.9536C13.9733 23.963 13.9868 23.9721 14 23.9809C14.0132 23.9721 14.0268 23.963 14.0406 23.9536C14.3149 23.7687 14.7091 23.4949 15.1831 23.1426C16.1322 22.4373 17.3958 21.4214 18.6572 20.1788C21.2079 17.6658 23.625 14.3465 23.625 10.8614C23.625 8.47887 22.6109 6.19392 20.8059 4.50922C19.0009 2.82452 16.5527 1.87806 14 1.87806ZM14 24.7642C13.6186 25.2981 13.6185 25.298 13.6182 25.2978L13.6156 25.2961L13.6087 25.2919L13.5841 25.2763C13.5629 25.2629 13.5323 25.2433 13.4927 25.2178C13.4137 25.1667 13.2992 25.0917 13.1544 24.994C12.8647 24.7988 12.4532 24.5128 11.9604 24.1466C10.9759 23.4149 9.66146 22.3587 8.34466 21.0614C5.73918 18.4945 3 14.8624 3 10.8614C3 8.1385 4.15893 5.52714 6.22183 3.60176C8.28473 1.67639 11.0826 0.594727 14 0.594727C16.9174 0.594727 19.7153 1.67639 21.7782 3.60176C23.8411 5.52714 25 8.1385 25 10.8614C25 14.8624 22.2608 18.4945 19.6553 21.0614C18.3386 22.3587 17.0241 23.4149 16.0396 24.1466C15.5468 24.5128 15.1353 24.7988 14.8456 24.994C14.7008 25.0917 14.5863 25.1667 14.5073 25.2178C14.4677 25.2433 14.4371 25.2629 14.4159 25.2763L14.3913 25.2919L14.3844 25.2961L14.3824 25.2974C14.3822 25.2975 14.3814 25.2981 14 24.7642ZM14 24.7642L14.3814 25.2981C14.1504 25.4418 13.8492 25.4415 13.6182 25.2978L14 24.7642Z" fill="#F29E2A"/>
<path fill-rule="evenodd" clip-rule="evenodd" d="M14 8.29505C12.4812 8.29505 11.25 9.44419 11.25 10.8617C11.25 12.2792 12.4812 13.4284 14 13.4284C15.5188 13.4284 16.75 12.2792 16.75 10.8617C16.75 9.44419 15.5188 8.29505 14 8.29505ZM9.875 10.8617C9.875 8.73542 11.7218 7.01172 14 7.01172C16.2782 7.01172 18.125 8.73542 18.125 10.8617C18.125 12.988 16.2782 14.7117 14 14.7117C11.7218 14.7117 9.875 12.988 9.875 10.8617Z" fill="#F29E2A"/>
</g>
<defs>
<clipPath id="clip0_1382_24235">
<rect width="27.5" height="25.6667" fill="white" transform="translate(0.25 0.166992)"/>
</clipPath>
</defs>
</svg>
