<svg width="557" height="491" viewBox="0 0 557 491" fill="none" xmlns="http://www.w3.org/2000/svg">
<g clip-path="url(#clip0_169_12476)">
<path d="M220.499 490.064C342.278 490.064 440.999 391.405 440.999 269.703C440.999 148.001 342.278 49.3418 220.499 49.3418C98.7209 49.3418 0 148.001 0 269.703C0 391.405 98.7209 490.064 220.499 490.064Z" fill="#102C52"/>
<path d="M486.336 436.001H179.2C162.712 436.001 149.346 422.643 149.346 406.165V158.111C149.346 141.633 162.712 128.275 179.2 128.275H486.339C502.828 128.275 516.194 141.633 516.194 158.111V406.165C516.194 422.643 502.824 436.001 486.336 436.001Z" fill="#FFAA00"/>
<path d="M382.245 271.345C382.174 271.345 382.1 271.341 382.025 271.329C381.982 271.322 380.91 271.181 378.942 270.884C378.042 270.747 377.424 269.91 377.565 269.011C377.702 268.111 378.539 267.497 379.439 267.63C381.372 267.924 382.448 268.068 382.46 268.068C383.36 268.19 383.994 269.015 383.876 269.914C383.767 270.747 383.058 271.345 382.245 271.345Z" fill="#808080"/>
<path d="M367.032 268.851C366.934 268.851 366.832 268.843 366.735 268.823C364.723 268.456 362.673 268.065 360.638 267.662C359.746 267.486 359.167 266.622 359.343 265.73C359.519 264.839 360.38 264.26 361.276 264.436C363.299 264.835 365.334 265.222 367.329 265.589C368.221 265.754 368.816 266.61 368.652 267.505C368.503 268.295 367.811 268.851 367.032 268.851ZM348.865 265.155C348.748 265.155 348.626 265.144 348.505 265.116C346.486 264.667 344.455 264.197 342.464 263.728C341.579 263.517 341.032 262.633 341.243 261.749C341.45 260.866 342.339 260.318 343.223 260.529C345.199 260.999 347.222 261.46 349.225 261.91C350.113 262.109 350.669 262.985 350.473 263.873C350.297 264.635 349.616 265.155 348.865 265.155ZM330.862 260.764C330.722 260.764 330.581 260.744 330.44 260.709C328.433 260.177 326.417 259.626 324.457 259.075C323.581 258.828 323.072 257.921 323.319 257.045C323.565 256.169 324.473 255.661 325.349 255.907C327.294 256.455 329.293 257.002 331.285 257.53C332.161 257.765 332.686 258.664 332.451 259.54C332.255 260.279 331.59 260.764 330.862 260.764ZM313.067 255.602C312.903 255.602 312.735 255.579 312.57 255.524C310.583 254.895 308.599 254.249 306.67 253.6C305.809 253.311 305.343 252.38 305.633 251.516C305.923 250.656 306.858 250.191 307.718 250.48C309.628 251.121 311.592 251.763 313.56 252.384C314.425 252.658 314.906 253.581 314.632 254.449C314.413 255.157 313.764 255.602 313.067 255.602ZM295.565 249.534C295.37 249.534 295.174 249.498 294.979 249.424C293.014 248.677 291.066 247.907 289.188 247.144C288.346 246.8 287.943 245.842 288.284 245.002C288.628 244.161 289.587 243.758 290.428 244.098C292.283 244.853 294.208 245.612 296.148 246.351C296.998 246.675 297.424 247.625 297.099 248.474C296.853 249.131 296.231 249.534 295.565 249.534ZM278.502 242.315C278.267 242.315 278.028 242.264 277.802 242.159C275.896 241.263 274.018 240.341 272.214 239.422C271.404 239.007 271.083 238.018 271.498 237.208C271.913 236.399 272.903 236.078 273.713 236.493C275.485 237.396 277.336 238.303 279.21 239.187C280.032 239.574 280.384 240.556 279.997 241.377C279.711 241.967 279.116 242.315 278.502 242.315ZM262.174 233.595C261.881 233.595 261.587 233.517 261.317 233.353C259.506 232.246 257.737 231.112 256.062 229.978C255.311 229.47 255.111 228.445 255.624 227.695C256.133 226.944 257.158 226.744 257.909 227.257C259.541 228.363 261.266 229.47 263.035 230.549C263.81 231.022 264.056 232.035 263.583 232.809C263.273 233.314 262.73 233.595 262.174 233.595ZM247.176 222.791C246.793 222.791 246.41 222.658 246.1 222.388C244.477 220.985 242.931 219.542 241.503 218.103C240.861 217.457 240.865 216.417 241.511 215.776C242.156 215.135 243.197 215.139 243.839 215.784C245.208 217.164 246.695 218.548 248.256 219.901C248.945 220.496 249.019 221.536 248.425 222.22C248.096 222.596 247.638 222.791 247.176 222.791ZM269.26 215.107C268.427 215.107 267.714 214.478 267.624 213.633C267.531 212.73 268.188 211.92 269.092 211.827C271.076 211.619 273.055 211.295 274.977 210.853C275.865 210.654 276.745 211.205 276.949 212.089C277.152 212.972 276.596 213.856 275.712 214.059C273.662 214.529 271.549 214.877 269.436 215.096C269.373 215.103 269.315 215.107 269.26 215.107ZM256.958 214.912C256.884 214.912 256.81 214.908 256.731 214.896C256.551 214.873 256.371 214.845 256.191 214.818C254.317 214.54 252.412 214.173 250.522 213.731C249.638 213.524 249.09 212.64 249.297 211.752C249.505 210.869 250.393 210.321 251.277 210.528C253.077 210.951 254.892 211.299 256.677 211.565C256.845 211.588 257.013 211.615 257.181 211.639C258.081 211.764 258.711 212.593 258.586 213.492C258.473 214.317 257.768 214.912 256.958 214.912ZM239.183 209.969C238.971 209.969 238.756 209.93 238.553 209.844C237.68 209.48 236.8 209.097 235.927 208.698C235.872 208.745 235.818 208.788 235.759 208.827C235 209.328 233.979 209.125 233.478 208.366C233.204 207.955 232.938 207.537 232.676 207.123C232.257 206.845 231.999 206.399 231.948 205.922C231.353 204.913 230.802 203.896 230.293 202.88C229.886 202.066 230.219 201.081 231.032 200.674C231.846 200.268 232.832 200.6 233.239 201.413C233.775 202.485 234.362 203.56 235.004 204.624C236.596 205.41 238.212 206.145 239.82 206.814C240.658 207.162 241.057 208.124 240.709 208.964C240.439 209.586 239.828 209.969 239.183 209.969ZM286.875 209.836C286.288 209.836 285.721 209.52 285.424 208.968C284.993 208.167 285.298 207.169 286.097 206.743C287.861 205.801 289.54 204.733 291.085 203.576C291.813 203.032 292.842 203.177 293.39 203.904C293.934 204.632 293.789 205.66 293.061 206.207C291.383 207.467 289.563 208.624 287.65 209.645C287.403 209.774 287.137 209.836 286.875 209.836ZM222.98 201.101C222.659 201.101 222.334 201.007 222.049 200.811C220.343 199.638 218.645 198.391 217.001 197.1C216.285 196.541 216.16 195.505 216.723 194.793C217.283 194.078 218.32 193.953 219.032 194.516C220.621 195.763 222.264 196.971 223.915 198.101C224.662 198.618 224.854 199.638 224.338 200.389C224.021 200.85 223.504 201.101 222.98 201.101ZM300.507 197.628C300.198 197.628 299.885 197.542 299.603 197.358C298.844 196.858 298.633 195.841 299.134 195.083C299.216 194.958 299.298 194.832 299.376 194.707C300.331 193.206 301.172 191.591 301.865 189.913C302.213 189.073 303.176 188.678 304.013 189.022C304.854 189.37 305.25 190.332 304.905 191.168C304.138 193.022 303.211 194.805 302.151 196.467C302.061 196.608 301.971 196.745 301.881 196.885C301.568 197.37 301.039 197.628 300.507 197.628ZM227.894 192.169C227.112 192.169 226.415 191.606 226.274 190.809C225.911 188.725 225.699 186.586 225.652 184.451C225.633 183.543 226.353 182.789 227.261 182.769C228.16 182.757 228.923 183.469 228.943 184.376C228.986 186.347 229.178 188.318 229.518 190.242C229.675 191.137 229.076 191.99 228.18 192.146C228.082 192.162 227.988 192.169 227.894 192.169ZM208.8 189.268C208.378 189.268 207.955 189.108 207.634 188.783C206.167 187.309 204.723 185.776 203.346 184.216C202.743 183.536 202.81 182.495 203.491 181.893C204.171 181.291 205.212 181.358 205.815 182.038C207.149 183.547 208.546 185.033 209.97 186.46C210.612 187.102 210.612 188.146 209.966 188.787C209.641 189.108 209.223 189.268 208.8 189.268ZM306.024 180.208C306.001 180.208 305.973 180.208 305.95 180.208C305.042 180.165 304.338 179.398 304.381 178.491C304.404 177.959 304.416 177.424 304.416 176.888C304.416 175.461 304.33 174.022 304.154 172.614C304.044 171.711 304.686 170.894 305.586 170.78C306.486 170.667 307.308 171.312 307.421 172.211C307.609 173.752 307.707 175.328 307.707 176.884C307.707 177.467 307.695 178.057 307.668 178.636C307.625 179.52 306.897 180.208 306.024 180.208ZM196.991 175.054C196.467 175.054 195.951 174.804 195.634 174.339C194.448 172.61 193.31 170.831 192.249 169.056C191.784 168.274 192.042 167.265 192.82 166.799C193.603 166.334 194.612 166.592 195.078 167.37C196.103 169.087 197.203 170.808 198.349 172.477C198.862 173.228 198.674 174.249 197.923 174.765C197.637 174.964 197.312 175.054 196.991 175.054ZM228.493 173.807C228.395 173.807 228.297 173.799 228.2 173.779C227.304 173.619 226.709 172.763 226.869 171.871C227.261 169.705 227.722 167.632 228.25 165.712C228.489 164.836 229.397 164.32 230.273 164.563C231.15 164.801 231.666 165.708 231.424 166.584C230.923 168.407 230.481 170.381 230.109 172.454C229.964 173.248 229.272 173.807 228.493 173.807ZM302.221 162.322C301.622 162.322 301.047 161.998 300.754 161.427C300.183 160.316 299.545 159.237 298.856 158.22C298.465 157.645 298.046 157.071 297.608 156.515C297.044 155.804 297.166 154.767 297.878 154.204C298.59 153.641 299.627 153.763 300.19 154.474C300.679 155.092 301.149 155.733 301.583 156.375C302.346 157.501 303.054 158.697 303.684 159.925C304.099 160.735 303.778 161.724 302.972 162.138C302.73 162.263 302.475 162.322 302.221 162.322ZM188.082 158.877C187.44 158.877 186.83 158.502 186.568 157.872C185.746 155.929 184.991 153.954 184.33 151.999C184.04 151.139 184.502 150.204 185.363 149.915C186.224 149.621 187.159 150.087 187.448 150.947C188.082 152.824 188.806 154.724 189.6 156.59C189.956 157.426 189.565 158.392 188.728 158.744C188.513 158.838 188.293 158.877 188.082 158.877ZM234.577 156.457C234.284 156.457 233.987 156.378 233.72 156.214C232.946 155.741 232.703 154.728 233.177 153.954C234.335 152.065 235.642 150.325 237.07 148.781C237.688 148.112 238.729 148.073 239.394 148.691C240.063 149.309 240.102 150.349 239.484 151.014C238.201 152.398 237.023 153.966 235.978 155.671C235.673 156.179 235.133 156.457 234.577 156.457ZM289.704 149.008C289.403 149.008 289.098 148.925 288.824 148.753C287.188 147.717 285.431 146.767 283.6 145.93C282.775 145.551 282.411 144.577 282.786 143.752C283.166 142.927 284.14 142.563 284.966 142.939C286.934 143.838 288.824 144.859 290.584 145.973C291.351 146.458 291.578 147.475 291.093 148.241C290.784 148.738 290.252 149.008 289.704 149.008ZM248.311 144.538C247.673 144.538 247.063 144.163 246.797 143.541C246.441 142.704 246.828 141.738 247.666 141.382C249.591 140.561 251.653 139.893 253.797 139.392C254.685 139.189 255.565 139.736 255.773 140.624C255.98 141.508 255.428 142.391 254.54 142.599C252.584 143.052 250.706 143.662 248.957 144.409C248.745 144.495 248.526 144.538 248.311 144.538ZM272.543 142.399C272.445 142.399 272.343 142.391 272.245 142.372C270.281 142.012 268.29 141.77 266.329 141.66C265.422 141.609 264.729 140.831 264.78 139.924C264.831 139.017 265.609 138.329 266.517 138.375C268.614 138.497 270.739 138.751 272.84 139.138C273.732 139.302 274.327 140.159 274.163 141.054C274.014 141.844 273.321 142.399 272.543 142.399ZM182.882 141.171C182.092 141.171 181.391 140.6 181.258 139.791C180.918 137.699 180.667 135.591 180.519 133.523C180.452 132.616 181.137 131.83 182.041 131.763C182.945 131.701 183.735 132.381 183.802 133.284C183.942 135.255 184.181 137.265 184.506 139.255C184.651 140.151 184.044 140.995 183.148 141.144C183.058 141.163 182.968 141.171 182.882 141.171ZM182.479 122.75C182.409 122.75 182.342 122.746 182.272 122.738C181.372 122.625 180.73 121.8 180.847 120.9C181.113 118.804 181.489 116.708 181.97 114.667C182.178 113.784 183.062 113.232 183.95 113.443C184.835 113.651 185.382 114.534 185.175 115.422C184.721 117.35 184.365 119.332 184.115 121.315C184.001 122.144 183.293 122.75 182.479 122.75ZM187.632 105.079C187.397 105.079 187.155 105.028 186.928 104.919C186.106 104.532 185.758 103.55 186.145 102.729C186.877 101.185 187.691 99.6439 188.559 98.1502C188.751 97.8178 188.947 97.4893 189.146 97.1609C189.616 96.3827 190.625 96.1325 191.404 96.6017C192.183 97.0709 192.433 98.0837 191.964 98.8579C191.776 99.1708 191.588 99.4836 191.404 99.8003C190.582 101.216 189.812 102.674 189.119 104.137C188.837 104.731 188.246 105.079 187.632 105.079ZM197.825 89.7156C197.441 89.7156 197.058 89.5827 196.745 89.3129C196.06 88.7185 195.986 87.6784 196.585 86.9941C197.938 85.4417 199.386 83.8971 200.896 82.4151C201.546 81.7777 202.587 81.7855 203.224 82.4307C203.862 83.0759 203.854 84.12 203.209 84.7574C201.761 86.1846 200.368 87.6627 199.073 89.1526C198.74 89.524 198.283 89.7156 197.825 89.7156ZM211.41 77.2144C210.909 77.2144 210.416 76.9876 210.091 76.5536C209.547 75.8262 209.696 74.7939 210.424 74.2504C212.063 73.0226 213.789 71.8143 215.55 70.6529C216.309 70.1524 217.33 70.3636 217.831 71.1222C218.332 71.8807 218.12 72.9013 217.361 73.4019C215.655 74.5241 213.985 75.6972 212.396 76.8859C212.099 77.1088 211.754 77.2144 211.41 77.2144ZM227.104 67.4582C226.509 67.4582 225.934 67.1336 225.641 66.5667C225.222 65.7611 225.539 64.7679 226.349 64.3495L226.908 64.0641C228.54 63.2312 230.226 62.4022 231.921 61.5888C232.742 61.1978 233.724 61.5458 234.116 62.3631C234.507 63.1842 234.159 64.1657 233.341 64.5567C231.67 65.3545 230.011 66.1717 228.403 66.9929L227.859 67.2705C227.617 67.3995 227.358 67.4582 227.104 67.4582ZM243.898 59.7119C243.252 59.7119 242.638 59.3287 242.375 58.6952C242.027 57.8545 242.426 56.8926 243.264 56.5445C245.146 55.7664 247.083 54.9882 249.023 54.2375C249.872 53.909 250.823 54.3313 251.152 55.1759C251.48 56.0245 251.058 56.9747 250.213 57.3031C248.295 58.0461 246.382 58.8125 244.524 59.5828C244.32 59.6728 244.109 59.7119 243.898 59.7119ZM261.215 53.2208C260.531 53.2208 259.889 52.7906 259.658 52.1024C259.369 51.2422 259.826 50.3076 260.687 50.0182C262.608 49.3691 264.592 48.72 266.58 48.0905C267.444 47.8167 268.372 48.2938 268.646 49.1619C268.92 50.0261 268.442 50.9528 267.574 51.2265C265.605 51.8483 263.645 52.4935 261.744 53.1348C261.571 53.1934 261.391 53.2208 261.215 53.2208ZM278.905 47.7933C278.185 47.7933 277.524 47.3162 277.32 46.5889C277.078 45.713 277.59 44.8058 278.467 44.5634C280.435 44.0159 282.45 43.4763 284.449 42.9562C285.326 42.7294 286.226 43.2534 286.457 44.1332C286.683 45.0131 286.155 45.9085 285.279 46.1392C283.295 46.6554 281.3 47.1911 279.347 47.7307C279.198 47.7737 279.05 47.7933 278.905 47.7933ZM296.849 43.2847C296.098 43.2847 295.417 42.7685 295.245 42.0021C295.045 41.1145 295.601 40.2347 296.485 40.0352C298.48 39.5856 300.515 39.1398 302.538 38.7136C303.426 38.5259 304.299 39.0929 304.487 39.9844C304.674 40.872 304.107 41.744 303.215 41.9317C301.212 42.354 299.189 42.7959 297.213 43.2417C297.091 43.273 296.97 43.2847 296.849 43.2847ZM314.981 39.5973C314.202 39.5973 313.505 39.0381 313.365 38.2443C313.204 37.3489 313.795 36.4964 314.691 36.3322C316.714 35.9685 318.768 35.6127 320.799 35.2842C321.695 35.1395 322.54 35.7456 322.689 36.6411C322.833 37.5366 322.227 38.3812 321.331 38.5298C319.32 38.8582 317.285 39.2063 315.282 39.5699C315.18 39.5895 315.078 39.5973 314.981 39.5973ZM333.265 36.7819C332.447 36.7819 331.739 36.1758 331.633 35.3468C331.52 34.4474 332.154 33.6223 333.057 33.5089C335.088 33.2509 337.158 33.0045 339.208 32.7777C340.112 32.6761 340.926 33.3291 341.024 34.2323C341.126 35.1356 340.472 35.949 339.568 36.0467C337.534 36.2696 335.483 36.516 333.472 36.774C333.406 36.778 333.335 36.7819 333.265 36.7819ZM351.67 34.9049C350.817 34.9049 350.098 34.248 350.031 33.3877C349.961 32.4805 350.641 31.6907 351.545 31.6203C353.592 31.4639 355.669 31.3231 357.723 31.198C358.631 31.1471 359.41 31.8353 359.465 32.7386C359.519 33.6458 358.827 34.424 357.923 34.4787C355.884 34.5999 353.822 34.7446 351.796 34.8971C351.756 34.901 351.713 34.9049 351.67 34.9049ZM394.812 34.0447C394.793 34.0447 394.773 34.0447 394.754 34.0447C392.719 33.9704 390.653 33.9156 388.615 33.8726C387.707 33.8531 386.983 33.1023 387.003 32.1951C387.022 31.2879 387.785 30.5606 388.681 30.584C390.735 30.6231 392.817 30.6818 394.871 30.7561C395.779 30.7874 396.491 31.5499 396.456 32.4571C396.424 33.3447 395.693 34.0447 394.812 34.0447ZM370.146 33.943C369.258 33.943 368.527 33.2352 368.503 32.3437C368.48 31.4365 369.196 30.6779 370.103 30.6544C372.158 30.5958 374.239 30.5567 376.297 30.5332C376.305 30.5332 376.309 30.5332 376.317 30.5332C377.217 30.5332 377.952 31.2566 377.96 32.1599C377.972 33.0671 377.244 33.8139 376.333 33.8218C374.294 33.8452 372.228 33.8843 370.193 33.943C370.178 33.943 370.162 33.943 370.146 33.943Z" fill="#808080"/>
<path d="M410.166 34.8851C410.127 34.8851 410.084 34.8851 410.045 34.8812C409.024 34.8069 408.002 34.7326 406.977 34.6661C406.069 34.6074 405.385 33.8215 405.443 32.9182C405.502 32.011 406.289 31.3267 407.192 31.3853C408.221 31.4518 409.254 31.5261 410.283 31.6004C411.191 31.6669 411.872 32.4568 411.802 33.36C411.743 34.2242 411.019 34.8851 410.166 34.8851Z" fill="#808080"/>
<path d="M556.503 214.047L551.941 238.956H552.187L520.506 411.744C517.908 425.911 505.551 436.203 491.137 436.203H174.184C159.672 436.203 147.26 425.771 144.772 411.478L143.093 401.836L127.004 309.361L120.834 273.902C117.657 255.657 131.715 238.956 150.246 238.956H317.536C327.361 238.956 336.555 234.127 342.123 226.044L365.752 191.751C371.328 183.668 380.519 178.839 390.34 178.839H527.138C545.778 178.839 559.86 195.724 556.503 214.047Z" fill="#FFDA00"/>
<path opacity="0.1" d="M190.078 354.314C190.078 380.372 169.094 401.535 143.089 401.84L127 309.365C131.864 307.687 137.083 306.78 142.514 306.78C168.781 306.776 190.078 328.056 190.078 354.314Z" fill="black"/>
<path d="M467.014 31.915C471.48 30.6612 473.109 22.5561 470.651 13.8116C468.194 5.06712 462.58 -1.00532 458.114 0.248436C453.647 1.50219 452.019 9.60735 454.477 18.3518C456.934 27.0963 462.547 33.1687 467.014 31.915Z" fill="#999999"/>
<path d="M480.921 36.78C481.479 32.5472 473.598 28.017 463.317 26.6614C453.035 25.3058 444.248 27.6382 443.689 31.871C443.13 36.1038 451.012 40.6341 461.293 41.9897C471.574 43.3453 480.362 41.0128 480.921 36.78Z" fill="#999999"/>
<path d="M480.756 21.6104C484.279 13.4155 483.617 5.26134 479.277 3.39753C474.936 1.53373 468.562 6.66608 465.038 14.861C461.515 23.0559 462.177 31.2101 466.517 33.0739C470.857 34.9377 477.232 29.8053 480.756 21.6104Z" fill="#CCCCCC"/>
<path d="M482.165 35.0845C481.269 36.195 479.34 36.2693 477.857 35.2526C476.374 34.2359 475.896 32.5076 476.796 31.3971C477.696 30.2865 479.621 30.2122 481.104 31.2289C482.587 32.2456 483.061 33.9739 482.165 35.0845Z" fill="#808080"/>
<path d="M455.335 43.9184C455.237 43.8519 455.174 43.7385 455.182 43.6212C455.194 43.4374 455.366 43.3045 455.57 43.324C460.363 43.7737 469.824 36.8877 470.559 36.2347C470.7 36.1095 470.935 36.1174 471.076 36.2503C471.221 36.3833 471.221 36.5944 471.08 36.7195C470.99 36.7977 461.04 44.4971 455.527 43.981C455.452 43.981 455.39 43.9536 455.335 43.9184Z" fill="#999999"/>
<path d="M444.716 40.407C444.602 40.3288 444.54 40.1958 444.571 40.0629C444.61 39.883 444.806 39.7774 445.001 39.8204C449.704 40.8957 460.23 35.3861 461.067 34.8426C461.227 34.737 461.458 34.7761 461.58 34.9286C461.701 35.0811 461.67 35.2884 461.509 35.39C461.407 35.4565 450.264 41.7013 444.853 40.4656C444.806 40.4578 444.759 40.4343 444.716 40.407Z" fill="#999999"/>
<path d="M460.175 45.3335C460.077 45.267 460.015 45.1536 460.022 45.0363C460.034 44.8525 460.206 44.7195 460.41 44.7391C465.203 45.1888 474.664 38.3027 475.399 37.6497C475.54 37.5246 475.775 37.5324 475.916 37.6653C476.061 37.7983 476.061 38.0095 475.92 38.1346C475.83 38.2128 465.88 45.9122 460.367 45.396C460.296 45.3921 460.23 45.3686 460.175 45.3335Z" fill="#999999"/>
<path d="M449.313 42.4402C449.2 42.362 449.137 42.229 449.168 42.0961C449.208 41.9162 449.403 41.8106 449.599 41.8536C454.302 42.929 464.827 37.4193 465.665 36.8758C465.825 36.7702 466.056 36.8093 466.177 36.9618C466.299 37.1143 466.267 37.3216 466.107 37.4232C466.005 37.4897 454.862 43.7345 449.45 42.4988C449.399 42.4871 449.352 42.4675 449.313 42.4402Z" fill="#999999"/>
<path d="M135.354 394.688C161.622 394.688 182.917 373.407 182.917 347.155C182.917 320.903 161.622 299.621 135.354 299.621C109.085 299.621 87.7904 320.903 87.7904 347.155C87.7904 373.407 109.085 394.688 135.354 394.688Z" fill="white"/>
<path d="M154.745 347.338C154.745 357.255 153.149 364.618 149.96 369.431C146.771 374.245 141.892 376.654 135.33 376.654C128.976 376.654 124.16 374.167 120.877 369.197C117.594 364.227 115.954 356.938 115.954 347.334C115.954 337.261 117.551 329.84 120.74 325.065C123.929 320.291 128.792 317.901 135.33 317.901C141.712 317.901 146.54 320.4 149.823 325.397C153.106 330.395 154.745 337.711 154.745 347.338ZM125.255 347.338C125.255 355.12 126.057 360.676 127.658 364.008C129.258 367.339 131.817 369.005 135.334 369.005C138.852 369.005 141.423 367.312 143.05 363.93C144.678 360.547 145.492 355.018 145.492 347.338C145.492 339.686 144.678 334.149 143.05 330.727C141.423 327.306 138.852 325.593 135.334 325.593C131.821 325.593 129.262 327.27 127.658 330.629C126.057 333.988 125.255 339.557 125.255 347.338Z" fill="#808080"/>
</g>
<defs>
<clipPath id="clip0_169_12476">
<rect width="557" height="490" fill="white" transform="translate(0 0.0644531)"/>
</clipPath>
</defs>
</svg>
