<svg width="24" height="24" viewBox="0 0 24 24" fill="none" xmlns="http://www.w3.org/2000/svg">
<path opacity="0.39" d="M12 0.429688C8.8174 0.429688 5.76515 1.66729 3.51472 3.87024C1.26428 6.07318 0 9.06102 0 12.1765C8.2043e-05 13.7191 0.310553 15.2465 0.913685 16.6717C1.51682 18.0969 2.4008 19.3918 3.51516 20.4825C4.62952 21.5732 5.95244 22.4384 7.40838 23.0287C8.86432 23.6189 10.4248 23.9227 12.0006 23.9226C13.5765 23.9225 15.1369 23.6186 16.5928 23.0282C18.0487 22.4378 19.3715 21.5725 20.4857 20.4816C21.6 19.3908 22.4838 18.0958 23.0868 16.6706C23.6898 15.2454 24.0001 13.7178 24 12.1752C24 5.68881 18.6263 0.429688 12 0.429688ZM12 21.4748C10.7434 21.4889 9.49634 21.2588 8.33118 20.7978C7.16602 20.3368 6.10588 19.6541 5.21215 18.7892C4.31843 17.9243 3.60889 16.8944 3.12464 15.7592C2.64038 14.624 2.39103 13.406 2.39103 12.1758C2.39103 10.9456 2.64038 9.72765 3.12464 8.59244C3.60889 7.45724 4.31843 6.42736 5.21215 5.56248C6.10588 4.69759 7.16602 4.01489 8.33118 3.5539C9.49634 3.09292 10.7434 2.86282 12 2.87693C13.2566 2.86282 14.5037 3.09292 15.6688 3.5539C16.834 4.01489 17.8941 4.69759 18.7878 5.56248C19.6816 6.42736 20.3911 7.45724 20.8754 8.59244C21.3596 9.72765 21.609 10.9456 21.609 12.1758C21.609 13.406 21.3596 14.624 20.8754 15.7592C20.3911 16.8944 19.6816 17.9243 18.7878 18.7892C17.8941 19.6541 16.834 20.3368 15.6688 20.7978C14.5037 21.2588 13.2566 21.4889 12 21.4748ZM8.87625 11.8705C9.91125 11.8705 10.75 10.9125 10.75 9.72921C10.75 8.54597 9.91 7.58787 8.875 7.58787C7.84 7.58787 7 8.54597 7 9.72921C7 10.9125 7.84 11.8705 8.87625 11.8705ZM15.125 11.8705C16.1613 11.8705 17 10.9125 17 9.72921C17 8.54597 16.16 7.58787 15.125 7.58787C14.09 7.58787 13.25 8.54719 13.25 9.72921C13.25 10.9112 14.09 11.8705 15.125 11.8705ZM17.4263 13.8112C17.2056 13.7023 16.9502 13.6822 16.7147 13.7554C16.4791 13.8286 16.2823 13.9892 16.1663 14.2028C16.1238 14.2835 15.08 16.152 12.0013 16.152C8.9375 16.152 7.8875 14.3007 7.835 14.204C7.72261 13.9867 7.52666 13.8221 7.29025 13.7462C7.05384 13.6704 6.79633 13.6896 6.57438 13.7996C6.35242 13.9096 6.1842 14.1014 6.10673 14.3328C6.02925 14.5643 6.04886 14.8163 6.16125 15.0336C6.22375 15.1547 7.72125 17.9874 12.0013 17.9874C16.2825 17.9874 17.7775 15.1535 17.8387 15.0324C17.9489 14.8168 17.9673 14.5673 17.89 14.3384C17.8127 14.1096 17.646 13.92 17.4263 13.8112Z" fill="#D8D8D8"/>
</svg>
